<svg width="698" height="354" viewBox="0 0 698 354" fill="none" xmlns="http://www.w3.org/2000/svg">
<ellipse cx="240.097" cy="6.51021" rx="1.09665" ry="1.17007" fill="white"/>
<ellipse cx="364.019" cy="6.51021" rx="1.09665" ry="1.17007" fill="white"/>
<ellipse cx="466.007" cy="69.6939" rx="1.09665" ry="1.17007" fill="white"/>
<ellipse cx="439.688" cy="143.408" rx="1.09665" ry="1.17007" fill="white"/>
<ellipse cx="252.16" cy="98.9456" rx="1.09665" ry="1.17007" fill="white"/>
<ellipse cx="283.963" cy="125.857" rx="1.09665" ry="1.17007" fill="white"/>
<ellipse cx="435.301" cy="100.116" rx="1.09665" ry="1.17007" fill="white"/>
<ellipse cx="399.112" cy="124.687" rx="1.09665" ry="1.17007" fill="white"/>
<ellipse cx="391.435" cy="38.102" rx="1.09665" ry="1.17007" fill="white"/>
<ellipse cx="437.494" cy="38.102" rx="1.09665" ry="1.17007" fill="white"/>
<ellipse cx="423.238" cy="8.85034" rx="1.09665" ry="1.17007" fill="white"/>
<ellipse cx="421.045" cy="68.5238" rx="1.09665" ry="1.17007" fill="white"/>
<ellipse cx="379.372" cy="94.2653" rx="1.09665" ry="1.17007" fill="white"/>
<ellipse cx="339.892" cy="29.9116" rx="1.09665" ry="1.17007" fill="white"/>
<ellipse cx="347.569" cy="166.81" rx="1.09665" ry="1.17007" fill="white"/>
<ellipse cx="466.007" cy="281.476" rx="1.09665" ry="1.17007" fill="white"/>
<ellipse cx="353.052" cy="65.0136" rx="1.09665" ry="1.17007" fill="white"/>
<ellipse cx="366.212" cy="197.231" rx="1.09665" ry="1.17007" fill="white"/>
<ellipse cx="381.565" cy="149.259" rx="1.09665" ry="1.17007" fill="white"/>
<ellipse cx="401.305" cy="179.68" rx="1.09665" ry="1.17007" fill="white"/>
<ellipse cx="346.472" cy="345.83" rx="1.09665" ry="1.17007" fill="white"/>
<ellipse cx="437.494" cy="245.204" rx="1.09665" ry="1.17007" fill="white"/>
<ellipse cx="377.178" cy="290.837" rx="1.09665" ry="1.17007" fill="white"/>
<ellipse cx="425.431" cy="307.218" rx="1.09665" ry="1.17007" fill="white"/>
<ellipse cx="383.758" cy="330.619" rx="1.09665" ry="1.17007" fill="white"/>
<ellipse cx="532.903" cy="27.5714" rx="1.09665" ry="1.17007" fill="white"/>
<ellipse cx="487.941" cy="31.0816" rx="1.09665" ry="1.17007" fill="white"/>
<ellipse cx="518.647" cy="67.3537" rx="1.09665" ry="1.17007" fill="white"/>
<ellipse cx="480.264" cy="128.197" rx="1.09665" ry="1.17007" fill="white"/>
<ellipse cx="479.167" cy="4.17007" rx="1.09665" ry="1.17007" fill="white"/>
<ellipse cx="490.134" cy="91.9252" rx="1.09665" ry="1.17007" fill="white"/>
<ellipse cx="478.071" cy="169.15" rx="1.09665" ry="1.17007" fill="white"/>
<ellipse cx="378.275" cy="231.163" rx="1.09665" ry="1.17007" fill="white"/>
<ellipse cx="467.104" cy="219.463" rx="1.09665" ry="1.17007" fill="white"/>
<ellipse cx="439.688" cy="191.381" rx="1.09665" ry="1.17007" fill="white"/>
<ellipse cx="413.368" cy="269.776" rx="1.09665" ry="1.17007" fill="white"/>
<ellipse cx="403.498" cy="221.803" rx="1.09665" ry="1.17007" fill="white"/>
<ellipse cx="285.059" cy="279.136" rx="1.09665" ry="1.17007" fill="white"/>
<ellipse cx="348.665" cy="247.544" rx="1.09665" ry="1.17007" fill="white"/>
<ellipse cx="339.892" cy="303.708" rx="1.09665" ry="1.17007" fill="white"/>
<ellipse cx="267.513" cy="343.49" rx="1.09665" ry="1.17007" fill="white"/>
<ellipse cx="300.413" cy="320.088" rx="1.09665" ry="1.17007" fill="white"/>
<ellipse cx="243.387" cy="304.878" rx="1.09665" ry="1.17007" fill="white"/>
<ellipse cx="309.186" cy="249.884" rx="1.09665" ry="1.17007" fill="white"/>
<ellipse cx="325.636" cy="197.231" rx="1.09665" ry="1.17007" fill="white"/>
<ellipse cx="288.349" cy="153.939" rx="1.09665" ry="1.17007" fill="white"/>
<ellipse cx="254.353" cy="233.503" rx="1.09665" ry="1.17007" fill="white"/>
<ellipse cx="253.257" cy="151.599" rx="1.09665" ry="1.17007" fill="white"/>
<ellipse cx="286.156" cy="194.891" rx="1.09665" ry="1.17007" fill="white"/>
<ellipse cx="323.442" cy="143.408" rx="1.09665" ry="1.17007" fill="white"/>
<ellipse cx="298.219" cy="96.6054" rx="1.09665" ry="1.17007" fill="white"/>
<ellipse cx="350.859" cy="111.816" rx="1.09665" ry="1.17007" fill="white"/>
<ellipse cx="309.186" cy="8.85034" rx="1.09665" ry="1.17007" fill="white"/>
<ellipse cx="311.379" cy="66.1837" rx="1.09665" ry="1.17007" fill="white"/>
<ellipse cx="271.9" cy="68.5238" rx="1.09665" ry="1.17007" fill="white"/>
<ellipse cx="242.29" cy="54.483" rx="1.09665" ry="1.17007" fill="white"/>
<ellipse cx="269.706" cy="17.0408" rx="1.09665" ry="1.17007" fill="white"/>
<ellipse cx="7.23048" cy="4.54082" rx="1.23048" ry="1.18027" fill="white"/>
<ellipse cx="146.275" cy="4.54082" rx="1.23048" ry="1.18027" fill="white"/>
<ellipse cx="260.71" cy="68.2755" rx="1.23048" ry="1.18027" fill="white"/>
<ellipse cx="231.178" cy="142.633" rx="1.23048" ry="1.18027" fill="white"/>
<ellipse cx="20.7658" cy="97.7823" rx="1.23048" ry="1.18027" fill="white"/>
<ellipse cx="56.4498" cy="124.929" rx="1.23048" ry="1.18027" fill="white"/>
<ellipse cx="226.257" cy="98.9626" rx="1.23048" ry="1.18027" fill="white"/>
<ellipse cx="185.651" cy="123.748" rx="1.23048" ry="1.18027" fill="white"/>
<ellipse cx="177.037" cy="36.4082" rx="1.23048" ry="1.18027" fill="white"/>
<ellipse cx="228.717" cy="36.4082" rx="1.23048" ry="1.18027" fill="white"/>
<ellipse cx="212.721" cy="6.90136" rx="1.23048" ry="1.18027" fill="white"/>
<ellipse cx="210.26" cy="67.0952" rx="1.23048" ry="1.18027" fill="white"/>
<ellipse cx="163.502" cy="93.0612" rx="1.23048" ry="1.18027" fill="white"/>
<ellipse cx="119.204" cy="28.1463" rx="1.23048" ry="1.18027" fill="white"/>
<ellipse cx="127.818" cy="166.238" rx="1.23048" ry="1.18027" fill="white"/>
<ellipse cx="260.71" cy="281.905" rx="1.23048" ry="1.18027" fill="white"/>
<ellipse cx="133.97" cy="63.5544" rx="1.23048" ry="1.18027" fill="white"/>
<ellipse cx="148.736" cy="196.925" rx="1.23048" ry="1.18027" fill="white"/>
<ellipse cx="165.963" cy="148.534" rx="1.23048" ry="1.18027" fill="white"/>
<ellipse cx="188.112" cy="179.221" rx="1.23048" ry="1.18027" fill="white"/>
<ellipse cx="126.587" cy="346.82" rx="1.23048" ry="1.18027" fill="white"/>
<ellipse cx="228.717" cy="245.316" rx="1.23048" ry="1.18027" fill="white"/>
<ellipse cx="161.041" cy="291.347" rx="1.23048" ry="1.18027" fill="white"/>
<ellipse cx="215.182" cy="307.871" rx="1.23048" ry="1.18027" fill="white"/>
<ellipse cx="168.424" cy="331.476" rx="1.23048" ry="1.18027" fill="white"/>
<ellipse cx="335.77" cy="25.7857" rx="1.23048" ry="1.18027" fill="white"/>
<ellipse cx="285.32" cy="29.3265" rx="1.23048" ry="1.18027" fill="white"/>
<ellipse cx="319.773" cy="65.915" rx="1.23048" ry="1.18027" fill="white"/>
<ellipse cx="276.706" cy="127.289" rx="1.23048" ry="1.18027" fill="white"/>
<ellipse cx="275.476" cy="2.18027" rx="1.23048" ry="1.18027" fill="white"/>
<ellipse cx="287.781" cy="90.7007" rx="1.23048" ry="1.18027" fill="white"/>
<ellipse cx="274.245" cy="168.599" rx="1.23048" ry="1.18027" fill="white"/>
<ellipse cx="162.271" cy="231.153" rx="1.23048" ry="1.18027" fill="white"/>
<ellipse cx="261.94" cy="219.35" rx="1.23048" ry="1.18027" fill="white"/>
<ellipse cx="231.178" cy="191.024" rx="1.23048" ry="1.18027" fill="white"/>
<ellipse cx="201.647" cy="270.102" rx="1.23048" ry="1.18027" fill="white"/>
<ellipse cx="190.572" cy="221.711" rx="1.23048" ry="1.18027" fill="white"/>
<ellipse cx="57.6803" cy="279.544" rx="1.23048" ry="1.18027" fill="white"/>
<ellipse cx="129.048" cy="247.677" rx="1.23048" ry="1.18027" fill="white"/>
<ellipse cx="119.204" cy="304.33" rx="1.23048" ry="1.18027" fill="white"/>
<ellipse cx="37.9926" cy="344.459" rx="1.23048" ry="1.18027" fill="white"/>
<ellipse cx="74.9071" cy="320.854" rx="1.23048" ry="1.18027" fill="white"/>
<ellipse cx="10.922" cy="305.51" rx="1.23048" ry="1.18027" fill="white"/>
<ellipse cx="84.7509" cy="250.037" rx="1.23048" ry="1.18027" fill="white"/>
<ellipse cx="103.208" cy="196.925" rx="1.23048" ry="1.18027" fill="white"/>
<ellipse cx="61.3717" cy="153.255" rx="1.23048" ry="1.18027" fill="white"/>
<ellipse cx="23.2268" cy="233.514" rx="1.23048" ry="1.18027" fill="white"/>
<ellipse cx="21.9963" cy="150.895" rx="1.23048" ry="1.18027" fill="white"/>
<ellipse cx="58.9108" cy="194.565" rx="1.23048" ry="1.18027" fill="white"/>
<ellipse cx="100.747" cy="142.633" rx="1.23048" ry="1.18027" fill="white"/>
<ellipse cx="72.4461" cy="95.4218" rx="1.23048" ry="1.18027" fill="white"/>
<ellipse cx="131.509" cy="110.765" rx="1.23048" ry="1.18027" fill="white"/>
<ellipse cx="84.7509" cy="6.90136" rx="1.23048" ry="1.18027" fill="white"/>
<ellipse cx="87.2119" cy="64.7347" rx="1.23048" ry="1.18027" fill="white"/>
<ellipse cx="42.9145" cy="67.0952" rx="1.23048" ry="1.18027" fill="white"/>
<ellipse cx="9.69145" cy="52.932" rx="1.23048" ry="1.18027" fill="white"/>
<ellipse cx="40.4535" cy="15.1633" rx="1.23048" ry="1.18027" fill="white"/>
<ellipse cx="696.967" cy="338.51" rx="1.03346" ry="1.16327" transform="rotate(180 696.967 338.51)" fill="white"/>
<ellipse cx="580.186" cy="338.51" rx="1.03346" ry="1.16327" transform="rotate(180 580.186 338.51)" fill="white"/>
<ellipse cx="484.074" cy="275.694" rx="1.03346" ry="1.16327" transform="rotate(180 484.074 275.694)" fill="white"/>
<ellipse cx="508.877" cy="202.408" rx="1.03346" ry="1.16327" transform="rotate(180 508.877 202.408)" fill="white"/>
<ellipse cx="685.599" cy="246.612" rx="1.03346" ry="1.16327" transform="rotate(180 685.599 246.612)" fill="white"/>
<ellipse cx="655.628" cy="219.857" rx="1.03346" ry="1.16327" transform="rotate(180 655.628 219.857)" fill="white"/>
<ellipse cx="513.011" cy="245.449" rx="1.03346" ry="1.16327" transform="rotate(180 513.011 245.449)" fill="white"/>
<ellipse cx="547.115" cy="221.02" rx="1.03346" ry="1.16327" transform="rotate(180 547.115 221.02)" fill="white"/>
<ellipse cx="554.349" cy="307.102" rx="1.03346" ry="1.16327" transform="rotate(180 554.349 307.102)" fill="white"/>
<ellipse cx="510.944" cy="307.102" rx="1.03346" ry="1.16327" transform="rotate(180 510.944 307.102)" fill="white"/>
<ellipse cx="524.379" cy="336.184" rx="1.03346" ry="1.16327" transform="rotate(180 524.379 336.184)" fill="white"/>
<ellipse cx="526.446" cy="276.857" rx="1.03346" ry="1.16327" transform="rotate(180 526.446 276.857)" fill="white"/>
<ellipse cx="565.717" cy="251.265" rx="1.03346" ry="1.16327" transform="rotate(180 565.717 251.265)" fill="white"/>
<ellipse cx="602.922" cy="315.245" rx="1.03346" ry="1.16327" transform="rotate(180 602.922 315.245)" fill="white"/>
<ellipse cx="595.688" cy="179.143" rx="1.03346" ry="1.16327" transform="rotate(180 595.688 179.143)" fill="white"/>
<ellipse cx="484.074" cy="65.1428" rx="1.03346" ry="1.16327" transform="rotate(180 484.074 65.1428)" fill="white"/>
<ellipse cx="590.52" cy="280.347" rx="1.03346" ry="1.16327" transform="rotate(180 590.52 280.347)" fill="white"/>
<ellipse cx="578.119" cy="148.898" rx="1.03346" ry="1.16327" transform="rotate(180 578.119 148.898)" fill="white"/>
<ellipse cx="563.651" cy="196.592" rx="1.03346" ry="1.16327" transform="rotate(180 563.651 196.592)" fill="white"/>
<ellipse cx="545.048" cy="166.347" rx="1.03346" ry="1.16327" transform="rotate(180 545.048 166.347)" fill="white"/>
<ellipse cx="596.721" cy="1.16327" rx="1.03346" ry="1.16327" transform="rotate(180 596.721 1.16327)" fill="white"/>
<ellipse cx="510.944" cy="101.204" rx="1.03346" ry="1.16327" transform="rotate(180 510.944 101.204)" fill="white"/>
<ellipse cx="567.784" cy="55.8367" rx="1.03346" ry="1.16327" transform="rotate(180 567.784 55.8367)" fill="white"/>
<ellipse cx="522.312" cy="39.551" rx="1.03346" ry="1.16327" transform="rotate(180 522.312 39.551)" fill="white"/>
<ellipse cx="561.584" cy="16.2857" rx="1.03346" ry="1.16327" transform="rotate(180 561.584 16.2857)" fill="white"/>
<ellipse cx="421.033" cy="317.571" rx="1.03346" ry="1.16327" transform="rotate(180 421.033 317.571)" fill="white"/>
<ellipse cx="463.405" cy="314.082" rx="1.03346" ry="1.16327" transform="rotate(180 463.405 314.082)" fill="white"/>
<ellipse cx="434.468" cy="278.02" rx="1.03346" ry="1.16327" transform="rotate(180 434.468 278.02)" fill="white"/>
<ellipse cx="470.639" cy="217.531" rx="1.03346" ry="1.16327" transform="rotate(180 470.639 217.531)" fill="white"/>
<ellipse cx="471.673" cy="340.837" rx="1.03346" ry="1.16327" transform="rotate(180 471.673 340.837)" fill="white"/>
<ellipse cx="461.338" cy="253.592" rx="1.03346" ry="1.16327" transform="rotate(180 461.338 253.592)" fill="white"/>
<ellipse cx="472.706" cy="176.816" rx="1.03346" ry="1.16327" transform="rotate(180 472.706 176.816)" fill="white"/>
<ellipse cx="566.751" cy="115.163" rx="1.03346" ry="1.16327" transform="rotate(180 566.751 115.163)" fill="white"/>
<ellipse cx="483.041" cy="126.796" rx="1.03346" ry="1.16327" transform="rotate(180 483.041 126.796)" fill="white"/>
<ellipse cx="508.877" cy="154.714" rx="1.03346" ry="1.16327" transform="rotate(180 508.877 154.714)" fill="white"/>
<ellipse cx="533.68" cy="76.7755" rx="1.03346" ry="1.16327" transform="rotate(180 533.68 76.7755)" fill="white"/>
<ellipse cx="542.981" cy="124.469" rx="1.03346" ry="1.16327" transform="rotate(180 542.981 124.469)" fill="white"/>
<ellipse cx="654.595" cy="67.4694" rx="1.03346" ry="1.16327" transform="rotate(180 654.595 67.4694)" fill="white"/>
<ellipse cx="594.654" cy="98.8776" rx="1.03346" ry="1.16327" transform="rotate(180 594.654 98.8776)" fill="white"/>
<ellipse cx="602.922" cy="43.0408" rx="1.03346" ry="1.16327" transform="rotate(180 602.922 43.0408)" fill="white"/>
<ellipse cx="671.13" cy="3.48981" rx="1.03346" ry="1.16327" transform="rotate(180 671.13 3.48981)" fill="white"/>
<ellipse cx="640.126" cy="26.7551" rx="1.03346" ry="1.16327" transform="rotate(180 640.126 26.7551)" fill="white"/>
<ellipse cx="693.866" cy="41.8775" rx="1.03346" ry="1.16327" transform="rotate(180 693.866 41.8775)" fill="white"/>
<ellipse cx="631.859" cy="96.551" rx="1.03346" ry="1.16327" transform="rotate(180 631.859 96.551)" fill="white"/>
<ellipse cx="616.357" cy="148.898" rx="1.03346" ry="1.16327" transform="rotate(180 616.357 148.898)" fill="white"/>
<ellipse cx="651.494" cy="191.939" rx="1.03346" ry="1.16327" transform="rotate(180 651.494 191.939)" fill="white"/>
<ellipse cx="683.532" cy="112.837" rx="1.03346" ry="1.16327" transform="rotate(180 683.532 112.837)" fill="white"/>
<ellipse cx="684.565" cy="194.265" rx="1.03346" ry="1.16327" transform="rotate(180 684.565 194.265)" fill="white"/>
<ellipse cx="653.561" cy="151.225" rx="1.03346" ry="1.16327" transform="rotate(180 653.561 151.225)" fill="white"/>
<ellipse cx="618.424" cy="202.408" rx="1.03346" ry="1.16327" transform="rotate(180 618.424 202.408)" fill="white"/>
<ellipse cx="642.193" cy="248.939" rx="1.03346" ry="1.16327" transform="rotate(180 642.193 248.939)" fill="white"/>
<ellipse cx="592.587" cy="233.816" rx="1.03346" ry="1.16327" transform="rotate(180 592.587 233.816)" fill="white"/>
<ellipse cx="631.859" cy="336.184" rx="1.03346" ry="1.16327" transform="rotate(180 631.859 336.184)" fill="white"/>
<ellipse cx="629.792" cy="279.184" rx="1.03346" ry="1.16327" transform="rotate(180 629.792 279.184)" fill="white"/>
<ellipse cx="666.996" cy="276.857" rx="1.03346" ry="1.16327" transform="rotate(180 666.996 276.857)" fill="white"/>
<ellipse cx="694.9" cy="290.816" rx="1.03346" ry="1.16327" transform="rotate(180 694.9 290.816)" fill="white"/>
<ellipse cx="669.063" cy="328.041" rx="1.03346" ry="1.16327" transform="rotate(180 669.063 328.041)" fill="white"/>
</svg>
